<svg width="116" height="101" viewBox="0 0 116 101" fill="none" xmlns="http://www.w3.org/2000/svg">
<g clip-path="url(#clip0_1_3396)">
<path d="M50.4334 40.3467C49.9812 40.3346 49.523 40.2502 49.0769 40.1719C48.2268 40.0211 47.3525 39.8644 46.4482 40.1417C46.3517 40.1719 46.2251 40.1538 46.0925 40.1297C46.0261 40.1176 45.9538 40.1055 45.8875 40.0995C45.8392 40.0995 45.797 40.0935 45.7488 40.0874C45.7367 40.0754 45.7247 40.0633 45.7066 40.0573C45.574 39.9729 45.4232 39.9247 45.2363 39.9126C45.158 39.9126 45.0796 39.9126 44.9891 39.9307C44.9288 39.9428 44.8806 39.9548 44.8384 39.9729C44.754 40.003 44.6756 40.0452 44.6334 40.0754C44.3139 40.196 43.9763 40.2563 43.6266 40.2563L43.5723 40.2683C43.5723 40.2683 43.518 40.2804 43.4939 40.2864C43.1141 40.3467 42.8609 40.3226 42.6981 40.202C42.5353 40.0754 42.4388 39.8342 42.3966 39.4363C42.2821 38.3631 41.6852 37.7964 40.6301 37.7361C39.563 37.6758 38.5199 37.6698 37.6397 37.6637H37.2719C35.3908 37.6517 35.3366 37.6818 34.9266 39.2916C34.8904 39.4363 34.8482 39.5991 34.8 39.7739C34.607 40.5035 34.384 40.6542 33.6243 40.5637C33.0756 40.4974 32.527 40.4311 31.9844 40.3648C31.1222 40.2563 30.2359 40.1477 29.3617 40.0513C29.2773 40.0452 29.1869 40.0332 29.0964 40.0211C28.6503 39.9608 28.186 39.9005 27.8243 40.0814C27.3118 40.3346 27.131 40.1899 26.8114 39.7679C26.2085 38.96 25.4971 38.6163 24.5987 38.6586C22.8623 38.755 21.0958 38.8274 19.3896 38.8937C18.3466 38.9359 17.3095 38.9721 16.2665 39.0203C16.17 38.9962 16.0676 38.9841 15.9771 38.9781C15.9168 38.9781 15.8626 38.9721 15.8023 38.9781C15.6757 38.9902 15.5611 39.0022 15.4646 39.0263C15.3622 39.0504 15.2657 39.0987 15.2054 39.159C15.1632 39.1891 15.121 39.2253 15.0788 39.2735H15.0486L15.0185 39.3037C14.8436 39.4604 14.5965 39.5388 14.3312 39.5087C14.2347 39.5026 14.1382 39.4845 13.9935 39.4484C13.9393 39.4423 13.885 39.4303 13.8368 39.4242C13.668 39.3941 13.4992 39.3459 13.3303 39.2976L13.1736 39.2554H12.9023C12.643 39.2373 12.3838 39.2253 12.1245 39.2072C12.0341 39.1228 11.9316 39.0685 11.8231 39.0384C11.6844 38.9841 11.5397 38.966 11.389 38.9479C11.2443 38.9359 11.1056 38.9479 10.973 38.9721H10.9368C10.8343 39.0022 10.7378 39.0504 10.6775 39.1107C10.6715 39.1107 10.6595 39.1228 10.6534 39.1288C10.5208 39.1288 10.3881 39.1288 10.2736 39.1409H10.2374C10.141 39.1831 10.0626 39.2072 9.99022 39.2132C9.82141 39.2373 9.65259 39.2253 9.50187 39.165H9.45363C9.42349 39.1529 9.38731 39.1469 9.35717 39.1409C9.31496 39.1107 9.27879 39.0866 9.23659 39.0625C9.13409 39.0022 9.02557 38.954 8.87484 38.9057C8.80249 38.8816 8.73014 38.8635 8.65176 38.8515H8.62162C8.50104 38.8274 8.38045 38.8153 8.25987 38.8213C8.15135 38.8213 8.04282 38.8394 7.97048 38.8816C7.92224 38.8937 7.88004 38.9178 7.83181 38.9479C7.31933 39.0082 6.80686 39.0866 6.30644 39.165C5.9447 39.2253 5.58295 39.2796 5.22724 39.3278C4.67859 39.4001 4.33493 39.6714 4.16009 40.1598C3.78628 41.227 3.79231 42.2459 4.17214 43.2829C4.54595 44.3018 4.60021 44.344 5.66736 44.4043C6.29439 44.4405 6.93347 44.5068 7.55447 44.5731C7.98856 44.6153 8.42266 44.6635 8.85675 44.6997L8.8869 44.7118C8.97131 44.7419 9.04968 44.7781 9.13409 44.8022C9.3632 44.8685 9.61642 44.8565 9.85758 44.766L9.97214 44.7178C10.0505 44.7057 10.1229 44.6937 10.1952 44.6756C10.8222 44.5128 11.4071 44.4043 12.0039 44.338C12.1908 44.2897 12.3838 44.2415 12.5827 44.2295C12.6008 44.2295 12.6129 44.2295 12.631 44.2295H12.6852C12.9204 44.2114 13.1615 44.2295 13.4087 44.3018C13.6981 44.3199 13.9574 44.35 14.1985 44.3862C14.7653 44.4827 15.3682 44.5731 15.959 44.5309C16.8031 44.4766 17.6592 44.3862 18.4852 44.2958C18.9012 44.2475 19.3172 44.2053 19.7332 44.1631C20.095 44.127 20.3844 44.1993 20.5894 44.3681C20.8004 44.549 20.921 44.8324 20.9451 45.2122C20.9813 45.7006 21.0235 46.2191 21.1802 46.6954C21.2827 47.0149 21.2827 47.2681 21.1682 47.4249C21.0717 47.5636 20.8788 47.6359 20.5954 47.6359C19.5644 47.648 18.5274 47.7263 17.5206 47.8047C15.8987 47.9313 14.2227 48.0579 12.5405 47.9012C10.7499 47.7324 8.89293 47.9796 7.10229 48.2207C6.68025 48.275 6.25821 48.3353 5.83617 48.3835C4.45551 48.5523 3.8948 49.2095 3.84054 50.7409C3.8104 51.5488 3.81643 52.3507 3.82848 53.1767C3.82848 53.4178 3.83451 53.659 3.84054 53.9001C3.87069 55.323 3.90083 56.7941 3.55115 58.217C3.22557 59.5313 3.68982 60.496 4.93784 61.0929C5.62516 61.4245 6.33659 61.732 7.01788 62.0274L7.48815 62.2324C7.61476 62.2866 7.77152 62.3108 7.91018 62.2927C8.98336 62.154 9.87567 62.0394 10.7981 61.9068C12.227 61.6958 13.6197 61.533 15.0125 61.8948C15.3441 61.9792 15.6998 61.943 16.0434 61.9008L16.4594 61.8586C18.7083 61.6174 21.0295 61.3762 23.3326 61.6234C24.3636 61.738 25.4127 61.6837 26.2085 61.6234C26.7391 61.5812 27.0465 61.4607 27.2093 61.2195C27.3842 60.9663 27.3842 60.6166 27.2093 60.0378C27.1008 59.664 27.1068 59.2419 27.1129 58.8199C27.1129 58.5727 27.1912 58.3195 27.2576 58.0723L27.2757 57.9999C27.4264 57.4392 27.2154 56.9991 26.721 56.8484C26.5763 56.8062 26.4316 56.7579 26.2869 56.7097C25.5815 56.4806 24.858 56.2455 24.1285 56.2093C22.1871 56.1068 20.2035 56.1249 18.2863 56.143H18.1476C17.5507 56.149 16.9478 56.1611 16.369 56.1731C16.0917 56.143 15.8143 56.143 15.5551 56.149L14.4156 56.1852C14.1081 56.1972 13.7886 56.2033 13.4931 56.2696L13.258 56.2816C13.0651 56.2937 12.8721 56.2997 12.6792 56.3118C11.9256 56.354 11.4734 56.0887 11.2684 55.4798C11.0996 54.9914 11.4613 53.8881 11.8291 53.7434C11.9617 53.6891 12.1004 53.6349 12.2391 53.5806L12.4682 53.4902H12.4742C12.5104 53.4962 12.5466 53.5022 12.5767 53.5022C12.6973 53.5143 12.8118 53.4962 12.9204 53.4781C13.1676 53.4359 13.3545 53.2972 13.5293 53.1586L13.5836 53.1164C13.7524 53.0802 13.8971 53.0561 14.0297 53.044C16.0856 52.8873 18.1898 52.839 20.1673 52.8089C21.1561 52.7908 22.169 52.8089 23.1457 52.8209C23.833 52.833 24.5204 52.8451 25.2016 52.8451C25.8468 52.8451 26.733 52.7546 27.0043 51.9769C27.3239 51.0785 27.4324 50.0958 27.5228 49.1673C27.553 48.8236 27.4806 48.4739 27.4083 48.1303C27.3721 47.9554 27.3299 47.7746 27.3118 47.6058C27.2455 47.1053 27.2877 46.8039 27.4384 46.629C27.5831 46.4662 27.8544 46.3879 28.3127 46.3879C28.3368 46.3879 28.3609 46.3879 28.391 46.3879C30.1154 46.418 31.9422 46.4663 33.986 46.5386C34.2634 46.5507 34.5528 46.6049 34.8301 46.6532C34.9447 46.6773 35.0652 46.6954 35.1798 46.7134L35.2883 46.8823H35.2702C35.1436 46.9305 35.023 46.9727 34.8964 47.0149C33.3711 47.5515 32.4727 48.7995 31.6045 50.144C29.9104 52.7667 29.8561 55.739 31.4357 58.9706C32.4908 61.1291 34.3478 62.4675 37.1151 63.0584C37.911 63.2332 38.6767 63.3176 39.4062 63.3176C41.0521 63.3176 42.5353 62.8775 43.8858 61.9852C45.3207 61.0446 47.033 59.6881 47.5756 57.5056C47.9012 56.2093 47.8047 54.7683 47.6902 53.5263C47.4128 50.548 46.207 48.5523 44.0004 47.4369C43.6266 47.25 43.2347 47.0692 42.8609 46.9003C42.7101 46.834 42.5534 46.7617 42.4027 46.6893V46.617C42.5353 46.5929 42.6679 46.5687 42.7945 46.5446C43.1382 46.4783 43.4939 46.412 43.8436 46.3879C44.6214 46.3276 45.4051 46.2793 46.1829 46.2311L47.1174 46.1708C47.5214 46.1889 47.9374 46.207 48.3413 46.1949C48.6126 46.1829 48.8719 46.1286 49.1251 46.0201L49.3241 46.002C49.517 45.9839 49.716 45.9719 49.9089 45.9538C51.1087 45.8392 51.8563 45.0615 51.8201 43.9762C51.7779 42.7041 51.5066 41.6731 50.9881 40.823C50.9579 40.7748 50.6927 40.3527 50.4033 40.3467H50.4334ZM40.3889 56.8303C40.0151 57.1378 39.5991 57.2704 39.2193 57.2222C37.6819 57.0051 36.4941 55.8053 36.5785 54.5513C36.6087 54.075 36.9101 53.3696 37.501 52.8812C37.8025 52.634 38.2727 52.3627 38.9178 52.3627C39.0083 52.3627 39.1047 52.3627 39.2012 52.3808C39.997 52.423 40.5879 52.6642 40.9677 53.0862C41.3174 53.4841 41.4802 54.0388 41.432 54.7442C41.3837 55.534 40.9738 56.354 40.3829 56.8363L40.3889 56.8303Z" fill="white"/>
<path d="M61.5633 36.458C61.8406 37.2719 62.2988 38.11 63.5951 38.1462C65.03 38.1884 66.5373 38.11 67.6949 36.7776C68.0928 36.3254 68.5329 35.8913 68.955 35.4692C69.4494 34.9869 69.9558 34.4805 70.408 33.9439C73.2236 30.5555 76.0693 27.0948 78.8186 23.7487C79.8918 22.4404 80.965 21.132 82.0442 19.8298L82.1346 19.7212C82.4059 19.3836 82.6591 19.0701 83.1354 19.046C83.3284 19.0339 83.5153 18.8169 83.5876 18.6782C84.492 16.7489 85.9812 15.3079 87.181 14.2649C87.4282 14.0479 87.597 13.9092 87.6995 13.9092H87.7055C87.802 13.9152 87.9346 14.0659 88.1517 14.3192L88.2119 14.3915C88.6521 14.8919 89.0741 15.4285 89.4781 15.947C90.3462 17.0503 91.2506 18.1959 92.3961 19.1244C92.5951 19.2208 92.7519 19.3293 92.8785 19.462C92.9629 19.5524 93.0413 19.6609 93.1377 19.8237C93.1679 19.8659 93.198 19.9081 93.2282 19.9503C93.3849 20.1493 93.5356 20.3543 93.6864 20.5532C94.024 21.0054 94.3737 21.4757 94.7535 21.8977C95.26 22.4645 95.7966 23.0312 96.3151 23.5738C96.7853 24.0622 97.2677 24.5747 97.7259 25.0811L97.961 25.3464C98.1479 26.1422 98.8413 26.9079 99.4924 27.553C99.8481 27.9088 100.234 28.2464 100.602 28.572C100.734 28.6865 100.861 28.8011 100.994 28.9156L101.175 29.0784C101.319 29.211 101.464 29.3376 101.597 29.4462L102.043 29.9526C102.308 30.2541 102.543 30.5917 102.772 30.9233C102.875 31.074 102.977 31.2187 103.086 31.3634C103.134 31.4297 103.176 31.4961 103.218 31.5624C103.309 31.7071 103.405 31.8578 103.538 31.9784C104.997 33.3169 106.462 34.6553 107.927 35.9938L109.875 37.7724C110.242 38.11 110.737 38.2788 111.213 38.2788C111.647 38.2788 112.063 38.1341 112.352 37.8507C113.022 37.1936 113.721 36.4761 114.228 35.6622C114.529 35.1738 114.631 34.4021 114.463 33.8655C114.384 33.6123 114.282 33.347 114.143 33.0275L114.125 32.9973C113.848 32.6838 113.613 32.3221 113.402 31.9784C113.112 31.5081 112.847 31.0379 112.588 30.5736C112.28 30.1998 111.936 29.82 111.575 29.4401C110.158 27.9751 108.669 26.5281 107.234 25.1354C105.576 23.5196 103.857 21.8555 102.242 20.1433C100.74 18.5576 99.2934 16.8574 97.8947 15.2175C96.9722 14.1323 96.0196 13.0108 95.061 11.9377C94.8801 11.7327 94.6751 11.5458 94.4762 11.3649C94.3857 11.2865 94.3013 11.2021 94.2109 11.1177L94.1687 11.0936C94.1144 11.0755 94.0662 11.0514 94.018 11.0212C93.9697 10.9911 93.9215 10.961 93.8733 10.9248L93.813 10.8826L93.7647 10.8645C93.7165 10.8585 93.6803 10.8404 93.6562 10.8223C93.608 10.7861 93.5718 10.7439 93.5598 10.6957C93.5417 10.6414 93.5477 10.5932 93.5598 10.5208V10.4605L93.5176 10.4183L93.4934 10.358L93.403 10.2495L93.3729 10.2375C93.1377 10.1651 92.9568 10.0445 92.8242 9.87571C92.7338 9.75513 92.6554 9.62852 92.577 9.48985C92.5288 9.40544 92.4805 9.32706 92.4323 9.24266C92.4203 9.22457 92.4142 9.20045 92.4263 9.17031L92.4444 9.11002L92.3419 8.98943C92.3178 8.84474 92.2695 8.70607 92.1851 8.58548C92.0464 8.37447 91.9138 8.18756 91.7872 8.02478C91.6968 7.9042 91.5943 7.8017 91.4918 7.71127L91.4556 7.66303C91.4315 7.63289 91.4074 7.59671 91.3833 7.5726C91.0275 7.1807 90.6477 6.80087 90.2739 6.43913C89.8036 5.97488 89.3153 5.49256 88.8812 4.98008C88.6279 4.67863 88.3988 4.53393 88.1637 4.51584C87.9406 4.50378 87.7055 4.60628 87.4342 4.84141C87.0483 5.18507 86.6564 5.51667 86.2645 5.8543C85.3722 6.61397 84.4498 7.39775 83.6479 8.26594C81.4593 10.6293 79.319 13.1133 77.251 15.5129L76.8531 15.9772C76.4793 16.4113 76.0633 16.8393 75.6714 17.2493C74.562 18.4009 73.4165 19.5886 72.8317 21.2044C72.5061 21.5541 72.1926 21.9098 71.8791 22.2715C71.1797 23.0674 70.4562 23.8873 69.6543 24.5988C68.2134 25.8709 66.9473 27.0526 65.9826 28.578C64.8793 30.3204 63.3298 31.6589 61.9552 32.732C61.298 33.2445 61.0508 33.7751 61.1352 34.5227C61.1774 34.7216 61.2196 34.9206 61.2558 35.1196C61.3402 35.5657 61.4306 36.0179 61.5814 36.458H61.5633Z" fill="white"/>
<path d="M54.9493 32.4727C54.9433 32.3582 54.9191 32.2738 54.883 32.1833C54.8408 32.0989 54.7744 32.0205 54.684 31.9602C54.5514 31.8758 54.3946 31.8577 54.274 31.8577H53.9243C53.8218 31.8276 53.7073 31.7975 53.5686 31.7613C53.5505 31.7613 53.5324 31.7492 53.5144 31.7492C53.3154 31.713 53.1164 31.6708 52.9235 31.6347C51.4584 31.3453 49.9391 31.0438 48.3655 31.3513C47.4129 31.5382 46.406 31.6226 45.363 31.6045C42.6077 31.5623 39.8042 31.49 37.0911 31.4176C35.638 31.3814 34.185 31.3453 32.732 31.3091C32.5632 31.3091 32.4486 31.2669 32.4125 31.2006C32.3763 31.1343 32.4004 31.0137 32.4848 30.869C33.0455 29.9103 33.0757 29.6209 33.2083 28.2282L33.2324 27.9991C33.359 26.7451 33.0395 25.6056 32.3461 24.8037C31.7131 24.0681 30.8027 23.6521 29.7235 23.5979C29.416 23.5858 29.0965 23.5557 28.789 23.5255C27.7459 23.4291 26.6607 23.3266 25.6418 23.7365C24.038 24.3756 23.1156 25.6417 23.1638 27.1128C23.212 28.4814 23.3748 28.9879 23.5436 29.5245C23.616 29.7476 23.6883 29.9827 23.7607 30.2902C23.833 30.6037 23.9536 30.9051 24.0802 31.2247C24.1224 31.3332 24.1707 31.4417 24.2129 31.5563C24.1827 31.5623 24.1526 31.5683 24.1224 31.5744C23.9838 31.5985 23.8813 31.6226 23.7728 31.6226L21.7952 31.6889C19.2871 31.7733 16.6885 31.8638 14.1322 31.918C13.4871 31.9422 12.8359 31.7794 12.3355 31.6407C12.3054 31.6347 12.2752 31.6226 12.2451 31.6106C12.1366 31.496 11.9677 31.3573 11.7266 31.3453C11.5879 31.3392 11.4492 31.3754 11.3287 31.4659C11.2744 31.5081 11.2322 31.5563 11.19 31.6045C11.1719 31.6226 11.1538 31.6407 11.1357 31.6648C11.0875 31.7191 11.0694 31.7311 11.0031 31.7673C10.991 31.7733 10.979 31.7794 10.9368 31.7914L10.8524 31.8095C10.8524 31.8095 10.7981 31.8095 10.768 31.8095C10.7016 31.7492 10.6474 31.6829 10.5811 31.6106L10.569 31.5985C10.5569 31.5623 10.5388 31.5261 10.5147 31.496C10.4122 31.3392 10.2736 31.2307 10.1228 31.2066C9.93594 31.1704 9.74903 31.1403 9.56213 31.1282C9.48978 31.1282 9.4114 31.1282 9.33905 31.1343C9.2245 31.1463 9.09789 31.1644 8.98937 31.2066C8.92305 31.2247 8.86275 31.2488 8.80246 31.291C8.24779 31.3634 7.69311 31.4598 7.15049 31.5563C6.67419 31.6407 6.1798 31.7311 5.69144 31.7975C5.44425 31.8336 5.19103 31.8698 4.94383 31.912C3.87668 32.0869 2.76732 32.2677 1.67002 31.9602C1.45298 31.8999 1.05505 32.111 0.970647 32.328C0.74154 32.8827 0.554638 33.4796 0.397881 34.1126C0.156716 35.1135 0.645075 35.8852 1.12137 36.6328C1.19975 36.7534 1.2721 36.874 1.34445 36.9945C1.46503 37.1875 1.76046 37.3261 1.96545 37.3322C2.6588 37.3744 3.48479 37.4105 4.32283 37.3864C4.69061 37.3744 5.06441 37.3382 5.42013 37.302C5.8904 37.2538 6.37876 37.1995 6.85506 37.2176C7.57252 37.2357 8.30808 37.296 9.01348 37.3563C9.52596 37.3985 10.0505 37.4407 10.575 37.4708C12.6912 37.5854 15.4827 37.7301 18.2802 37.8386C18.4671 37.8446 18.6601 37.8567 18.847 37.8688C19.1605 37.8869 19.474 37.911 19.7875 37.911C20.5291 37.911 21.2707 37.8024 21.97 37.3261C22.0122 37.296 22.0725 37.2779 22.1449 37.2598L22.1931 37.2357C22.3077 37.1513 22.4463 37.1031 22.579 37.091C22.6694 37.091 22.7719 37.1091 22.8624 37.1634C22.8985 37.1875 22.9287 37.2116 22.9648 37.2357L23.001 37.2659H23.0553C23.5557 37.5432 24.1285 37.5552 24.7193 37.5432C25.0449 37.5372 25.3524 37.495 25.6418 37.4226C25.7141 37.4045 25.7804 37.3864 25.8468 37.3683H25.8829C25.9673 37.3683 26.0518 37.3683 26.1362 37.3683C26.1965 37.3683 26.2567 37.3623 26.317 37.3623H26.4798L26.5522 37.3744C26.6547 37.3985 26.7632 37.4286 26.8717 37.4407C27.0707 37.4648 27.2696 37.4528 27.4565 37.4407H27.5771C27.8665 37.4226 28.1559 37.4407 28.4393 37.4648C28.6443 37.4769 28.8493 37.4889 29.0543 37.495C29.6451 37.495 30.254 37.4347 30.8148 37.3563H31.0981C31.5081 37.4106 32.0929 37.4407 32.5089 37.0066C32.5873 36.9825 32.6717 36.9523 32.7501 36.9282C32.9913 36.8498 33.2204 36.7715 33.4314 36.7835C34.3297 36.8378 35.2461 36.9041 36.1264 36.9704C37.4166 37.0669 38.7551 37.1694 40.0694 37.2236C42.1435 37.302 44.2476 37.3201 46.2855 37.3382H46.9125C47.6601 37.5311 48.4921 37.5854 49.5412 37.501C49.7763 37.4829 49.9994 37.3683 50.1381 37.1995L50.2044 37.1634C50.3129 37.1332 50.4275 37.1151 50.5299 37.097C50.5722 37.097 50.6204 37.097 50.6385 37.097C50.747 37.1212 50.8555 37.1573 50.9942 37.2056C51.0424 37.2236 51.1329 37.2417 51.2534 37.2659C51.3077 37.2779 51.3559 37.2839 51.374 37.29C51.8262 37.4347 52.2904 37.5311 52.7547 37.5854C53.3094 37.6517 53.7917 37.4528 54.2379 37.2478C54.3584 37.1935 54.473 37.0729 54.5453 36.9222C54.6539 36.7896 54.7564 36.6207 54.8588 36.4097C55.2929 35.4933 55.2387 34.5648 55.1241 33.5278C55.0699 33.0274 55.0277 32.7078 54.9312 32.4607L54.9493 32.4727Z" fill="white"/>
<path d="M21.8073 20.8306C22.6393 21.4094 23.7306 21.8555 25.1414 22.2052C25.883 22.3861 26.6366 22.4826 27.4143 22.4826C28.801 22.4826 30.248 22.1871 31.7975 21.6023C34.6613 20.5171 36.6992 18.3888 37.8567 15.2718C38.6526 13.1314 38.8757 10.8826 38.5079 8.59152C38.1823 6.54765 37.7181 4.42541 35.9636 2.93019C35.831 2.81564 35.6923 2.69506 35.5597 2.5805C35.1014 2.17655 34.6312 1.75452 34.0946 1.47115C31.6649 0.199008 28.8734 -0.229058 25.3102 0.114601C22.2354 0.416056 19.7996 1.97759 18.0692 4.76304C16.7971 6.81293 16.1821 9.20649 16.0736 12.5104C15.8867 14.2528 16.5379 16.0435 17.8582 17.4181C19.1485 18.7686 20.4809 19.9142 21.8073 20.8366V20.8306ZM22.3258 10.3279C22.362 10.1892 22.4283 10.0385 22.5368 9.85763C22.567 9.76719 22.6031 9.67676 22.6393 9.58029C22.6755 9.49588 22.7177 9.41148 22.7599 9.32707L22.8021 9.23663V9.18237C22.8141 9.01958 22.8684 8.86283 22.9528 8.72416C23.0312 8.60358 23.1277 8.49505 23.2302 8.38653L23.4231 8.17551C23.9476 7.45202 24.5686 6.95763 25.3222 6.66221C27.2757 5.89048 30.6701 6.19796 31.7071 8.7543C31.9121 9.26075 32.0326 9.81543 32.1472 10.352C32.2014 10.6052 32.2557 10.8645 32.316 11.0876C32.3522 12.3597 31.7794 13.656 30.7605 14.6327C29.6873 15.6637 28.2705 16.1822 26.8778 16.0978C26.2929 16.0555 25.69 15.9531 25.069 15.7842C23.8089 15.4406 23.4593 14.3252 23.1156 13.252C23.0372 13.0048 22.9588 12.7576 22.8865 12.5104C22.7659 12.1246 22.6453 11.7387 22.5247 11.3589C22.4886 11.2564 22.4645 11.1479 22.4464 11.0152L22.4162 10.9489C22.4162 10.9489 22.3981 10.9248 22.3921 10.9067C22.374 10.8645 22.362 10.8283 22.3499 10.768C22.3258 10.7077 22.3077 10.6595 22.3017 10.6052C22.2956 10.5208 22.3017 10.4304 22.3258 10.3219V10.3279Z" fill="white"/>
<path d="M115.542 50.6747C115.494 50.4697 115.192 50.2767 114.981 50.2466C114.583 50.1923 114.191 50.1321 113.793 50.0657C112.847 49.915 111.87 49.7582 110.887 49.7582H110.815C110.628 49.698 110.453 49.6859 110.272 49.698C109.959 49.7281 109.621 49.7944 109.241 49.8969C109.217 49.9029 109.193 49.915 109.169 49.921C108.771 49.9874 108.343 50.0175 107.927 50.0235C104.888 50.0115 101.85 49.9934 98.811 49.9753L94.2289 49.9512C92.3237 49.9391 90.3462 49.9271 88.4289 49.9994C88.0129 49.9452 87.6693 49.921 87.3437 49.9331C87.211 49.9331 87.0965 49.9813 87.0121 50.0657C85.8244 50.1381 84.7632 50.2406 83.7805 50.3672C83.0088 50.4697 82.2069 50.4456 81.4291 50.4275C81.0071 50.4154 80.567 50.4034 80.1389 50.4094C80.0605 50.4094 79.9882 50.4094 79.9098 50.4154H79.747C79.5059 50.3551 79.2526 50.3129 79.0054 50.2828C78.6316 50.2466 78.2277 50.2406 77.7574 50.2828H77.6971C77.3716 50.3129 77.0038 50.3431 76.6903 50.5119H76.425C76.1838 50.536 75.9366 50.4938 75.6955 50.4576L75.587 50.4456C75.1107 50.3853 74.6404 50.319 74.1641 50.2526L73.5672 50.1743H73.4888C73.2657 50.1863 73.0728 50.1441 72.8739 50.0838L72.5905 50.0476C72.3614 50.0175 72.1323 49.9874 71.9032 49.9572L71.7946 49.9451L71.662 49.9753C71.4751 50.0175 71.2942 50.0597 71.1194 50.0416C70.9506 50.0235 70.7818 49.9572 70.5949 49.8427L70.2934 49.8005C70.1306 49.704 69.9377 49.6678 69.7387 49.6919C69.588 49.71 69.4252 49.7402 69.2685 49.7884C68.0204 49.921 66.7664 50.0537 65.5184 50.1863L64.1196 50.337V50.2647H64.0051C63.8302 50.2647 63.6493 50.2647 63.4745 50.2647C63.0344 50.2587 62.5762 50.2526 62.13 50.2888C62.0697 50.2888 62.0034 50.3069 61.9552 50.319C61.8949 50.319 61.8406 50.319 61.7863 50.319C61.708 50.331 61.6115 50.337 61.5271 50.3672C61.3945 50.4094 61.292 50.4938 61.2317 50.5963C61.1895 50.6566 61.1714 50.7289 61.1714 50.7772C61.1533 50.8495 61.1593 50.9219 61.1834 50.9942C61.1895 51.0183 61.2015 51.0424 61.2136 51.0605C60.9061 52.0011 60.677 52.8271 60.5202 53.5867C60.4479 53.9424 60.6046 54.3946 60.9483 54.8347C61.3161 55.299 61.7863 55.6125 62.1602 55.6306C62.8595 55.6607 63.5589 55.6969 64.2583 55.7271C65.7897 55.7994 67.3813 55.8778 68.9429 55.8959C69.2986 55.8959 69.6543 55.914 70.0161 55.932C71.1978 55.9803 72.4217 56.0345 73.6215 55.6668C73.8265 55.6004 74.0857 55.6487 74.3389 55.6909C74.4113 55.7029 74.4776 55.715 74.5499 55.7271C74.773 55.7572 74.9901 55.7994 75.2131 55.8476C75.4543 55.8959 75.7075 55.9441 75.9608 55.9803C76.7325 56.0828 77.5042 56.1672 78.2518 56.2335C78.5171 56.2576 78.7944 56.2998 79.0597 56.336C79.4878 56.4023 79.9279 56.4626 80.362 56.4626C80.7961 56.4626 81.2181 56.4023 81.6341 56.2094C82.5747 55.7813 83.5212 55.7451 84.311 55.7512C85.1069 55.7632 85.9208 55.7934 86.7046 55.8235C87.5909 55.8597 88.5013 55.8959 89.3996 55.9019H89.6408C90.6898 55.9019 91.769 55.92 92.8663 55.6668C93.7225 55.4678 94.663 55.51 95.5674 55.5522C95.9291 55.5703 96.3029 55.5884 96.6707 55.5884C97.346 55.5884 98.0152 55.5944 98.6904 55.6004C99.42 55.8778 100.162 55.9742 100.891 55.8778C101.168 55.8416 101.452 55.7693 101.723 55.6969L101.958 55.6366H102.441C102.688 55.6487 102.947 55.6848 103.194 55.721C103.381 55.7512 103.58 55.7813 103.773 55.7934H103.839C104.032 55.8778 104.237 55.9622 104.454 55.9803C104.931 56.0225 105.383 55.9079 105.823 55.7873L105.962 55.7512C106.203 55.6848 106.45 55.6306 106.685 55.5884C106.739 55.5884 106.794 55.5884 106.848 55.5884C108.632 55.6487 110.441 55.7451 112.196 55.8356C112.75 55.8657 113.311 55.8959 113.866 55.92C113.902 55.92 113.938 55.92 113.974 55.92C114.686 55.92 115.228 55.5582 115.506 54.889C116.115 53.4119 115.873 51.9287 115.56 50.6686L115.542 50.6747Z" fill="white"/>
<path d="M90.7502 39.4604C89.472 39.0625 88.1155 39.1107 86.3369 39.6051C85.0889 39.9548 84.3292 40.6722 83.9554 41.86C83.5032 43.307 83.5514 43.9702 83.6057 44.6756C83.6238 44.9348 83.6479 45.2001 83.6419 45.5196C83.6358 46.6652 84.2508 47.5936 85.4687 48.2749C86.4273 48.8115 87.4523 48.902 88.6099 48.9622C88.7847 48.9442 88.9595 48.9321 89.1284 48.92C89.5082 48.8899 89.9061 48.8658 90.286 48.7693C92.1369 48.3051 93.2764 46.9968 93.6743 44.8806C94.223 41.9384 92.6011 40.0392 90.7442 39.4604H90.7502Z" fill="white"/>
<path d="M2.70103 97.4664L4.79313 100.445H3.47276L1.97151 98.2863L1.05509 99.3233V100.445H0V95.1994H1.05509V97.7437L3.316 95.1874H4.76901L2.70706 97.4664H2.70103Z" fill="white"/>
<path d="M7.88002 95.1392C9.45965 95.1392 10.5389 96.351 10.5389 97.8221C10.5389 99.2932 9.45965 100.505 7.88002 100.505C6.3004 100.505 5.22119 99.2992 5.22119 97.8221C5.22119 96.345 6.3004 95.1392 7.88002 95.1392ZM9.49582 97.8221C9.49582 96.9238 8.87482 96.2003 7.88002 96.2003C6.88522 96.2003 6.26423 96.9177 6.26423 97.8221C6.26423 98.7265 6.87919 99.45 7.88002 99.45C8.88085 99.45 9.49582 98.7325 9.49582 97.8221Z" fill="white"/>
<path d="M11.5879 95.1936H14.0719C14.9703 95.1936 15.6998 95.9231 15.6998 96.9903C15.6274 97.9127 15.1873 98.3348 14.6507 98.6784L15.947 100.445H14.6507L13.4931 98.8653H12.5948V100.445H11.5819V95.1936H11.5879ZM14.6567 97.0264C14.6567 96.6165 14.3251 96.2849 13.9152 96.2849H12.6008V97.7861H13.9152C14.3251 97.7861 14.6567 97.4425 14.6567 97.0264Z" fill="white"/>
<path d="M20.6135 96.2304H17.9306V97.2192H20.3844V98.2622H17.9306V99.3897H20.6135V100.439H16.8936V95.1874H20.6135V96.2244V96.2304Z" fill="white"/>
<path d="M27.0586 100.445H25.9493L25.4247 99.1608H23.1457L22.6212 100.445H21.5118L23.7004 95.1936H24.87L27.0586 100.445ZM24.9906 98.1237L24.3154 96.4537L23.5858 98.1237H24.9846H24.9906Z" fill="white"/>
<path d="M33.0997 100.445H31.6226L29.0723 96.6044V100.445H28.0051V95.1936H29.4159L32.0326 99.0221V95.1936H33.0937V100.445H33.0997Z" fill="white"/>
<path d="M37.1332 100.228C36.5725 99.9082 36.2891 99.4259 36.2047 99.2028L37.1754 98.8411C37.2116 98.9436 37.3322 99.1305 37.6276 99.2993C38.0376 99.5223 38.3089 99.5766 38.7249 99.5043C38.8274 99.4862 38.9902 99.444 39.153 99.3656C39.3037 99.2872 39.3941 99.1907 39.4363 99.1124C39.5147 98.9858 39.4966 98.7989 39.3821 98.6783C39.2796 98.5758 39.0384 98.4853 38.3028 98.2984L37.923 98.202C37.6336 98.1236 37.4105 98.0332 37.2116 97.9065C36.9945 97.7618 36.8378 97.593 36.7956 97.5388C36.5062 97.165 36.3976 96.5018 36.5725 96.0797C36.8076 95.4648 37.4166 95.1392 37.9471 95.0668C38.3993 95.0126 39.0685 95.0548 39.6715 95.3924C39.8945 95.513 40.0814 95.6456 40.2201 95.8024L39.4303 96.4957C39.376 96.4415 39.2916 96.3872 39.1771 96.3209C38.7972 96.1038 38.4174 96.0737 38.0798 96.1038C37.8446 96.14 37.6216 96.2305 37.5492 96.4776C37.5191 96.5681 37.507 96.7188 37.6155 96.8695C37.6638 96.9298 37.724 97.0022 37.8085 97.0444C37.8929 97.0926 37.9652 97.1107 38.1883 97.177L38.55 97.2735C39.5026 97.5327 39.8825 97.7377 40.1176 97.9427C40.4613 98.2502 40.6783 98.8411 40.401 99.4862C40.2744 99.7816 40.0211 100.107 39.6112 100.318C39.3881 100.415 39.0866 100.535 38.8334 100.559C38.2365 100.65 37.6999 100.529 37.1453 100.228H37.1332Z" fill="white"/>
<path d="M45.0132 96.2306H43.6507V100.445H42.5835V96.2306H41.1908V95.1936H45.0132V96.2306Z" fill="white"/>
<path d="M49.6677 96.2304H46.9848V97.2192H49.4386V98.2622H46.9848V99.3897H49.6677V100.439H45.9478V95.1874H49.6677V96.2244V96.2304Z" fill="white"/>
<path d="M56.1129 100.445H55.0036L54.479 99.1608H52.2L51.6755 100.445H50.5662L52.7547 95.1936H53.9244L56.1129 100.445ZM54.045 98.1237L53.3697 96.4537L52.6402 98.1237H54.0389H54.045Z" fill="white"/>
<path d="M59.7784 97.4664L61.8705 100.445H60.5502L59.0489 98.2863L58.1325 99.3233V100.445H57.0774V95.1994H58.1325V97.7437L60.3934 95.1874H61.8464L59.7845 97.4664H59.7784Z" fill="white"/>
<path d="M67.3329 100.445H66.2778V98.2685H63.9506V100.445H62.8955V95.1936H63.9506V97.2314H66.2778V95.1936H67.3329V100.445Z" fill="white"/>
<path d="M71.041 95.1392C72.6207 95.1392 73.6999 96.351 73.6999 97.8221C73.6999 99.2932 72.6207 100.505 71.041 100.505C69.4614 100.505 68.3822 99.2992 68.3822 97.8221C68.3822 96.345 69.4614 95.1392 71.041 95.1392ZM72.6568 97.8221C72.6568 96.9238 72.0358 96.2003 71.041 96.2003C70.0462 96.2003 69.4252 96.9177 69.4252 97.8221C69.4252 98.7265 70.0402 99.45 71.041 99.45C72.0419 99.45 72.6568 98.7325 72.6568 97.8221Z" fill="white"/>
<path d="M76.8531 99.4077C77.5283 99.4077 77.9624 98.9435 77.9624 98.3044V95.1874H79.0236V98.3165C79.0236 99.4982 78.0167 100.487 76.8531 100.487C75.6895 100.487 74.6826 99.5042 74.6826 98.3165V95.1874H75.7437V98.3044C75.7437 98.9435 76.1778 99.4077 76.8531 99.4077Z" fill="white"/>
<path d="M80.9046 100.228C80.3439 99.9082 80.0605 99.4259 79.9761 99.2028L80.9468 98.8411C80.9829 98.9436 81.1035 99.1305 81.3989 99.2993C81.8089 99.5223 82.0802 99.5766 82.4962 99.5043C82.5987 99.4862 82.7615 99.444 82.9243 99.3656C83.075 99.2872 83.1655 99.1907 83.2077 99.1124C83.2861 98.9858 83.268 98.7989 83.1534 98.6783C83.0509 98.5758 82.8098 98.4853 82.0742 98.2984L81.6944 98.202C81.405 98.1236 81.1819 98.0332 80.9829 97.9065C80.7659 97.7618 80.6091 97.593 80.5669 97.5388C80.2775 97.165 80.169 96.5018 80.3439 96.0797C80.579 95.4648 81.1879 95.1392 81.7185 95.0668C82.1707 95.0126 82.8399 95.0548 83.4428 95.3924C83.6659 95.513 83.8528 95.6456 83.9915 95.8024L83.2017 96.4957C83.1474 96.4415 83.063 96.3872 82.9484 96.3209C82.5686 96.1038 82.1888 96.0737 81.8511 96.1038C81.616 96.14 81.3929 96.2305 81.3206 96.4776C81.2904 96.5681 81.2784 96.7188 81.3869 96.8695C81.4351 96.9298 81.4954 97.0022 81.5798 97.0444C81.6642 97.0926 81.7366 97.1107 81.9597 97.177L82.3214 97.2735C83.274 97.5327 83.6538 97.7377 83.889 97.9427C84.2326 98.2502 84.4497 98.8411 84.1723 99.4862C84.0457 99.7816 83.7925 100.107 83.3825 100.318C83.1595 100.415 82.858 100.535 82.6048 100.559C82.0079 100.65 81.4713 100.529 80.9166 100.228H80.9046Z" fill="white"/>
<path d="M89.0859 96.2304H86.403V97.2192H88.8568V98.2622H86.403V99.3897H89.0859V100.439H85.366V95.1874H89.0859V96.2244V96.2304Z" fill="white"/>
<path d="M95.905 100.439L95.5734 100.095C95.1875 100.415 94.6871 100.644 94.054 100.644C92.2996 100.644 92.191 99.1968 92.191 98.9797C92.191 98.7988 92.2754 98.0392 92.9869 97.4905C92.7578 97.2494 92.5588 96.96 92.5588 96.5138C92.5588 95.8747 93.1014 95.0909 94.0962 95.0909C95.091 95.0909 95.6156 95.8506 95.6156 96.5138C95.6156 97.0323 95.3322 97.4121 94.8137 97.7437L95.5131 98.4672C95.6095 98.2984 95.706 98.1236 95.8025 97.9548L96.7611 98.4974C96.6345 98.7144 96.4898 98.9918 96.2969 99.2751L97.4303 100.445H95.905V100.439ZM94.054 99.5464C94.3495 99.5464 94.5967 99.456 94.8016 99.3053L93.7887 98.2683C93.3305 98.5275 93.2823 98.8772 93.2823 98.9797C93.2823 99.1184 93.3185 99.5464 94.054 99.5464ZM94.0118 96.9539C94.4158 96.761 94.5183 96.6585 94.5183 96.5078C94.5183 96.3088 94.3736 96.1822 94.0962 96.1822C93.7285 96.1822 93.6501 96.3149 93.6501 96.5078C93.6501 96.6465 93.8008 96.755 94.0118 96.9539Z" fill="white"/>
<path d="M100.366 95.1936H102.868C103.664 95.1936 104.309 95.8146 104.309 96.6225C104.309 97.0747 104.104 97.4304 103.779 97.6957C104.177 97.9489 104.43 98.4312 104.43 98.9859C104.43 99.7938 103.785 100.445 102.989 100.445H100.372V95.1936H100.366ZM101.433 97.2314H102.736C103.013 97.2254 103.218 97.0325 103.218 96.7551C103.218 96.4778 102.989 96.2608 102.712 96.2608H101.427V97.2314H101.433ZM101.433 99.3115H102.79C103.067 99.3115 103.29 99.0944 103.29 98.8111C103.29 98.5277 103.067 98.2865 102.79 98.2865H101.433V99.3115Z" fill="white"/>
<path d="M110.664 100.445H109.555L109.03 99.1608H106.751L106.227 100.445H105.117L107.306 95.1936H108.476L110.664 100.445ZM108.596 98.1237L107.921 96.4537L107.191 98.1237H108.59H108.596Z" fill="white"/>
<path d="M111.641 95.1936H114.125C115.023 95.1936 115.753 95.9231 115.753 96.9903C115.68 97.9127 115.24 98.3348 114.704 98.6784L116 100.445H114.704L113.546 98.8653H112.648V100.445H111.635V95.1936H111.641ZM114.71 97.0264C114.71 96.6165 114.378 96.2849 113.968 96.2849H112.654V97.7861H113.968C114.378 97.7861 114.71 97.4425 114.71 97.0264Z" fill="white"/>
<path d="M12.2391 67.1221C19.1726 67.1221 23.9175 72.4458 23.9175 78.8909C23.9175 85.336 19.1726 90.6596 12.2391 90.6596C5.30562 90.6596 0.554688 85.3661 0.554688 78.8909C0.554688 72.4156 5.29959 67.1221 12.2331 67.1221H12.2391ZM19.3233 78.8909C19.3233 74.9358 16.5861 71.7765 12.2391 71.7765C7.8921 71.7765 5.15489 74.9418 5.15489 78.8909C5.15489 82.8399 7.86196 86.0353 12.2391 86.0353C16.6162 86.0353 19.3233 82.8701 19.3233 78.8909Z" fill="white"/>
<path d="M32.3462 85.794H42.9936V90.4183H27.6978V67.363H32.3522V85.794H32.3462Z" fill="white"/>
<path d="M65.8619 90.4183H61.2376V80.8682H51.0182V90.4183H46.3939V67.363H51.0182V76.3042H61.2376V67.363H65.8619V90.4183Z" fill="white"/>
<path d="M74.0795 89.4717C71.6136 88.073 70.3716 85.9447 70.0038 84.968L74.2603 83.3884C74.4111 83.8466 74.9597 84.6665 76.2379 85.3961C78.0346 86.3667 79.2163 86.6139 81.0431 86.3064C81.5013 86.216 82.2007 86.0351 82.9302 85.6975C83.5994 85.3659 83.9974 84.9378 84.1782 84.5701C84.5098 84.0214 84.4495 83.2015 83.9371 82.6528C83.4789 82.1946 82.4177 81.8027 79.1922 80.9828L77.5221 80.5547C76.2439 80.2231 75.2732 79.8252 74.3869 79.2464C73.4464 78.6073 72.747 77.8778 72.5601 77.6366C71.282 75.9967 70.8237 73.0726 71.5894 71.2216C72.6204 68.5146 75.2973 67.0857 77.6125 66.7842C79.5901 66.543 82.5383 66.7239 85.1851 68.2131C86.1558 68.7316 86.9818 69.3405 87.5907 70.0098L84.124 73.0484C83.8828 72.8073 83.515 72.5601 82.9965 72.2888C81.3265 71.3482 79.6504 71.1915 78.1913 71.3482C77.1603 71.499 76.1836 71.8969 75.852 72.9882C75.7314 73.3861 75.6712 74.0553 76.1535 74.7245C76.3645 74.9958 76.6418 75.3033 77.0036 75.4842C77.3714 75.6952 77.703 75.7857 78.6737 76.063L80.2533 76.4911C84.4495 77.6185 86.0955 78.5289 87.1265 79.4393C88.6458 80.7778 89.5924 83.3944 88.3745 86.222C87.8259 87.5304 86.7044 88.9593 84.9078 89.8696C83.9371 90.2977 82.5986 90.8102 81.5013 90.9368C78.8847 91.3347 76.5152 90.8162 74.0795 89.4778V89.4717Z" fill="white"/>
<path d="M103.218 67.1221C110.152 67.1221 114.897 72.4458 114.897 78.8909C114.897 85.336 110.152 90.6596 103.218 90.6596C96.2847 90.6596 91.5398 85.3661 91.5398 78.8909C91.5398 72.4156 96.2847 67.1221 103.218 67.1221ZM110.302 78.8909C110.302 74.9358 107.565 71.7765 103.218 71.7765C98.8712 71.7765 96.134 74.9418 96.134 78.8909C96.134 82.8399 98.841 86.0353 103.218 86.0353C107.595 86.0353 110.302 82.8701 110.302 78.8909Z" fill="white"/>
</g>
<defs>
<clipPath id="clip0_1_3396">
<rect width="116" height="100.638" fill="white"/>
</clipPath>
</defs>
</svg>
